<svg width="36" height="36" viewBox="0 0 36 36" fill="none" xmlns="http://www.w3.org/2000/svg">
<rect width="36" height="36" rx="8" fill="#DB8401" fill-opacity="0.05"/>
<path d="M14.8862 23H12.5508V15.4916H14.8862V23ZM13.731 14.4621C13.346 14.4453 13.0279 14.3114 12.7768 14.0603C12.5257 13.8092 12.3917 13.4911 12.375 13.106C12.3917 12.5871 12.6177 12.1936 13.053 11.9258C13.505 11.6914 13.957 11.6914 14.409 11.9258C14.8443 12.1936 15.0703 12.5871 15.0871 13.106C15.0703 13.4911 14.9364 13.8092 14.6853 14.0603C14.4342 14.3114 14.1161 14.4453 13.731 14.4621ZM23.625 23H21.2896V19.3337C21.3231 18.8817 21.2729 18.4464 21.139 18.0279C21.005 17.6094 20.6535 17.3834 20.0843 17.3499C19.4983 17.3666 19.1133 17.5675 18.9291 17.9526C18.745 18.3376 18.6613 18.7812 18.678 19.2835V23H16.3426V15.4916H18.6027V16.5212H18.6278C18.7785 16.2031 19.0379 15.9269 19.4063 15.6925C19.7913 15.4414 20.2684 15.3075 20.8376 15.2907C21.976 15.3242 22.7377 15.6674 23.1228 16.3203C23.4911 16.99 23.6585 17.8437 23.625 18.8817V23Z" fill="#FCCF14"/>
</svg>
