<svg width="36" height="36" viewBox="0 0 36 36" fill="none" xmlns="http://www.w3.org/2000/svg">
<rect width="36" height="36" rx="8" fill="#DB8401" fill-opacity="0.05"/>
<path d="M21.9425 14.1858C22.4782 14.7215 22.8884 15.3242 23.173 15.9939C23.4743 16.6635 23.625 17.375 23.625 18.1283C23.6083 19.1663 23.3488 20.1038 22.8465 20.9408C22.3443 21.7779 21.6663 22.4475 20.8125 22.9498C19.9754 23.4353 19.0379 23.6864 18 23.7031C17.0458 23.7031 16.1585 23.4771 15.3382 23.0251L12.375 23.8036L13.1535 20.9157C12.668 20.0619 12.4252 19.1328 12.4252 18.1283C12.442 17.0904 12.6931 16.1529 13.1786 15.3158C13.6808 14.4788 14.3504 13.8092 15.1875 13.3069C16.0246 12.8214 16.9621 12.5703 18 12.5536C19.5234 12.5703 20.8376 13.1144 21.9425 14.1858ZM18 22.774C19.3058 22.7405 20.4023 22.2885 21.2896 21.418C22.1769 20.5307 22.6456 19.4342 22.6959 18.1283C22.6624 16.856 22.1853 15.7679 21.2645 14.8638C20.3605 13.9598 19.2723 13.5078 18 13.5078C16.6942 13.5246 15.606 13.9766 14.7355 14.8638C13.8482 15.7344 13.3878 16.8225 13.3544 18.1283C13.3711 19.0156 13.6138 19.8359 14.0826 20.5893L14.183 20.7651L13.7059 22.4727L15.4637 22.0206L15.6395 22.1211C16.3594 22.5396 17.1462 22.7573 18 22.774ZM20.5363 19.3086C20.553 19.3086 20.5781 19.317 20.6116 19.3337C20.7121 19.3672 20.779 19.409 20.8125 19.4593C20.8627 19.543 20.8292 19.769 20.7121 20.1373C20.6451 20.3047 20.5112 20.447 20.3103 20.5642C20.1094 20.6814 19.9336 20.7567 19.7829 20.7902C19.582 20.8237 19.356 20.8237 19.1049 20.7902C18.8705 20.74 18.5357 20.6228 18.1004 20.4386C17.4475 20.1205 16.9202 19.7355 16.5184 19.2835C16.0999 18.8315 15.8488 18.5301 15.7651 18.3795C15.7483 18.3627 15.74 18.346 15.74 18.3292C15.7232 18.3292 15.7148 18.3292 15.7148 18.3292C15.6646 18.2623 15.5642 18.0949 15.4135 17.827C15.2628 17.5424 15.1791 17.2327 15.1624 16.8979C15.1791 16.5798 15.2377 16.3287 15.3382 16.1445C15.4386 15.9604 15.5307 15.8348 15.6144 15.7679C15.6311 15.7511 15.6395 15.7344 15.6395 15.7176C15.7902 15.6004 15.9157 15.5502 16.0162 15.567C16.1166 15.567 16.2087 15.567 16.2924 15.567C16.2924 15.567 16.3008 15.567 16.3175 15.567C16.4012 15.5167 16.4933 15.5921 16.5938 15.793C16.6272 15.8767 16.6775 15.9855 16.7444 16.1194C16.8114 16.2868 16.87 16.4375 16.9202 16.5714C16.9704 16.7221 17.0039 16.8058 17.0206 16.8225C17.0709 16.9062 17.0792 16.99 17.0458 17.0737C16.9118 17.308 16.803 17.4587 16.7193 17.5257C16.6021 17.6261 16.577 17.7266 16.644 17.827C16.8951 18.279 17.1713 18.6222 17.4727 18.8566C17.774 19.091 18.1256 19.3002 18.5273 19.4844C18.6613 19.5681 18.7617 19.5597 18.8287 19.4593C18.8789 19.409 18.9542 19.3253 19.0547 19.2081C19.1384 19.091 19.2137 18.9905 19.2807 18.9068C19.3644 18.7896 19.4648 18.7729 19.582 18.8566C19.6657 18.8901 19.8248 18.957 20.0592 19.0575C20.2935 19.1747 20.4526 19.2584 20.5363 19.3086Z" fill="#FCCF14"/>
</svg>
